<svg xmlns="http://www.w3.org/2000/svg" viewBox="274 221 1104 425" xmlns:c2pa="http://c2pa.org/manifest"><metadata><c2pa:manifest>AAAWgmp1bWIAAAAeanVtZGMycGEAEQAQgAAAqgA4m3EDYzJwYQAAABZcanVtYgAAAEdqdW1kYzJtYQARABCAAACqADibcQN1cm46YzJwYTpkOWI4MTIxNi00MDhiLTQwNDQtYjEwNS05MmMzNDlkMjljNzAAAAADl2p1bWIAAAApanVtZGMyYXMAEQAQgAAAqgA4m3EDYzJwYS5hc3NlcnRpb25zAAAAALxqdW1iAAAARGp1bWRjYm9yABEAEIAAAKoAOJtxE2MycGEuaW5ncmVkaWVudC52MwAAAAAYYzJzaIeBRTPpWHAqb1tAAm74CnoAAABwY2JvcqNpZGM6Zm9ybWF0bWltYWdlL3N2Zyt4bWxqaW5zdGFuY2VJRHgseG1wOmlpZDphYjcxMmE4ZC03ZDEyLTRkMjQtODAwNC05NmZjMTEzMGYzZTZscmVsYXRpb25zaGlwaHBhcmVudE9mAAAB4mp1bWIAAABBanVtZGNib3IAEQAQgAAAqgA4m3ETYzJwYS5hY3Rpb25zLnYyAAAAABhjMnNoN6O8kgNQWQhtyMS2+Vnx/gAAAZljYm9yomdhY3Rpb25zgqJmYWN0aW9ua2MycGEub3BlbmVkanBhcmFtZXRlcnOha2luZ3JlZGllbnRzgaJjdXJseC1zZWxmI2p1bWJmPWMycGEuYXNzZXJ0aW9ucy9jMnBhLmluZ3JlZGllbnQudjNkaGFzaFggl9OxAh7r00X9s3Rz+xNeGCHpvRrSCV34WFNPgo/KiyWkZmFjdGlvbngdY29tLmFudGhyb3BpYy5jbGF1ZGUucHJvdmlkZWRqcGFyYW1ldGVyc6F4H2NvbS5hbnRocm9waWMub3JpZ2luLWNvbmZpZGVuY2VndW5rbm93bmtkZXNjcmlwdGlvbnhmQ2xhdWRlIHByb3ZpZGVkIHRoaXMgZmlsZSBhdCB0aGUgcmVxdWVzdCBvZiBhIHVzZXIgYW5kIG1heSBoYXZlIGNyZWF0ZWQgb3IgbW9kaWZpZWQgdGhlIGZpbGUgY29udGVudHMubXNvZnR3YXJlQWdlbnShZG5hbWVmQ2xhdWRlcmFsbEFjdGlvbnNJbmNsdWRlZPUAAADIanVtYgAAAEBqdW1kY2JvcgARABCAAACqADibcRNjMnBhLmhhc2guZGF0YQAAAAAYYzJzaEtIYR5oLYHTh+NiDjCSDkYAAACAY2JvcqVjYWxnZnNoYTI1NmNwYWRNAAAAAAAAAAAAAAAAAGRoYXNoWCDNUWUsYoQzy/37U6nxTCsheZitzWo+jzQGfPNvgGKxTWRuYW1lbmp1bWJmIG1hbmlmZXN0amV4Y2x1c2lvbnOBomVzdGFydBiCZmxlbmd0aBkeBAAAAj5qdW1iAAAAJ2p1bWRjMmNsABEAEIAAAKoAOJtxA2MycGEuY2xhaW0udjIAAAACD2Nib3KlY2FsZ2ZzaGEyNTZpc2lnbmF0dXJleE1zZWxmI2p1bWJmPS9jMnBhL3VybjpjMnBhOmQ5YjgxMjE2LTQwOGItNDA0NC1iMTA1LTkyYzM0OWQyOWM3MC9jMnBhLnNpZ25hdHVyZWppbnN0YW5jZUlEeCx4bXA6aWlkOjdiMzA2OWUyLTVlMzMtNDRmZi1hYmU2LTA3OTBiNTU4Y2E4MnJjcmVhdGVkX2Fzc2VydGlvbnODomN1cmx4LXNlbGYjanVtYmY9YzJwYS5hc3NlcnRpb25zL2MycGEuaW5ncmVkaWVudC52M2RoYXNoWCCX07ECHuvTRf2zdHP7E14YIem9GtIJXfhYU0+Cj8qLJaJjdXJseCpzZWxmI2p1bWJmPWMycGEuYXNzZXJ0aW9ucy9jMnBhLmFjdGlvbnMudjJkaGFzaFggU4b74U96Z93HuttP19L7I1mC0P8kKdlH5rb4YvZhjFyiY3VybHgpc2VsZiNqdW1iZj1jMnBhLmFzc2VydGlvbnMvYzJwYS5oYXNoLmRhdGFkaGFzaFggmw114fXZjXA+mqCj8W6cJDEmP3U0s5WDcnK0m6EvPt50Y2xhaW1fZ2VuZXJhdG9yX2luZm+jZG5hbWVvQW50aHJvcGljIEZpbGVzZ3ZlcnNpb25lMS4wLjBrc3BlY1ZlcnNpb25lMi40LjAAABA4anVtYgAAAChqdW1kYzJjcwARABCAAACqADibcQNjMnBhLnNpZ25hdHVyZQAAABAIY2JvctKEWQISogEmGCFZAgowggIGMIIBjaADAgECAhRA5aAK7sI50L64g/oGQgU9Z1UTADAKBggqhkjOPQQDAzBJMRcwFQYDVQQKEw5BbnRocm9waWMsIFBCQzEuMCwGA1UEAxMlQW50aHJvcGljIENvbnRlbnQgQ3JlZGVudGlhbHMgUm9vdCBDQTAeFw0yNjA4MDcxODQzNTZaFw0yODA4MDYxOTQzNTZaMEQxFzAVBgNVBAoTDkFudGhyb3BpYywgUEJDMSkwJwYDVQQDEyBBbnRocm9waWMgQ2xhdWRlIENvbnRlbnQgU2lnbmluZzBZMBMGByqGSM49AgEGCCqGSM49AwEHA0IABJh6CmvLUBgFFNU0vUKlOVtE6djd17L5SuwX0LemFisBM3dkd/3cyjxFA3Qo5S46fX0/ihY0VZ7mfb9KF703t5OjWDBWMA4GA1UdDwEB/wQEAwIHgDAVBgNVHSUEDjAMBgorBgEEAYPoXgIBMAwGA1UdEwEB/wQCMAAwHwYDVR0jBBgwFoAUzlHiBIFOZFsj+OPEz5o+nMHXXMIwCgYIKoZIzj0EAwMDZwAwZAIwMXMdFJ4BetLLVY7ORuE9noqbbAZOZn/aArXyTwFAZfKrPzxF2vPoJNf1+UCdg1XGAjBwX1zd9WGqYkqmL5SFqw1QySjr1zJfpJM9+1rdDwSPLMOPOjKuiXjoU/pUUeG9RwmhY3BhZFkNngAAAAAAAAAAAAAAAAAAAAAAAAAAAAAAAAAAAAAAAAAAAAAAAAAAAAAAAAAAAAAAAAAAAAAAAAAAAAAAAAAAAAAAAAAAAAAAAAAAAAAAAAAAAAAAAAAAAAAAAAAAAAAAAAAAAAAAAAAAAAAAAAAAAAAAAAAAAAAAAAAAAAAAAAAAAAAAAAAAAAAAAAAAAAAAAAAAAAAAAAAAAAAAAAAAAAAAAAAAAAAAAAAAAAAAAAAAAAAAAAAAAAAAAAAAAAAAAAAAAAAAAAAAAAAAAAAAAAAAAAAAAAAAAAAAAAAAAAAAAAAAAAAAAAAAAAAAAAAAAAAAAAAAAAAAAAAAAAAAAAAAAAAAAAAAAAAAAAAAAAAAAAAAAAAAAAAAAAAAAAAAAAAAAAAAAAAAAAAAAAAAAAAAAAAAAAAAAAAAAAAAAAAAAAAAAAAAAAAAAAAAAAAAAAAAAAAAAAAAAAAAAAAAAAAAAAAAAAAAAAAAAAAAAAAAAAAAAAAAAAAAAAAAAAAAAAAAAAAAAAAAAAAAAAAAAAAAAAAAAAAAAAAAAAAAAAAAAAAAAAAAAAAAAAAAAAAAAAAAAAAAAAAAAAAAAAAAAAAAAAAAAAAAAAAAAAAAAAAAAAAAAAAAAAAAAAAAAAAAAAAAAAAAAAAAAAAAAAAAAAAAAAAAAAAAAAAAAAAAAAAAAAAAAAAAAAAAAAAAAAAAAAAAAAAAAAAAAAAAAAAAAAAAAAAAAAAAAAAAAAAAAAAAAAAAAAAAAAAAAAAAAAAAAAAAAAAAAAAAAAAAAAAAAAAAAAAAAAAAAAAAAAAAAAAAAAAAAAAAAAAAAAAAAAAAAAAAAAAAAAAAAAAAAAAAAAAAAAAAAAAAAAAAAAAAAAAAAAAAAAAAAAAAAAAAAAAAAAAAAAAAAAAAAAAAAAAAAAAAAAAAAAAAAAAAAAAAAAAAAAAAAAAAAAAAAAAAAAAAAAAAAAAAAAAAAAAAAAAAAAAAAAAAAAAAAAAAAAAAAAAAAAAAAAAAAAAAAAAAAAAAAAAAAAAAAAAAAAAAAAAAAAAAAAAAAAAAAAAAAAAAAAAAAAAAAAAAAAAAAAAAAAAAAAAAAAAAAAAAAAAAAAAAAAAAAAAAAAAAAAAAAAAAAAAAAAAAAAAAAAAAAAAAAAAAAAAAAAAAAAAAAAAAAAAAAAAAAAAAAAAAAAAAAAAAAAAAAAAAAAAAAAAAAAAAAAAAAAAAAAAAAAAAAAAAAAAAAAAAAAAAAAAAAAAAAAAAAAAAAAAAAAAAAAAAAAAAAAAAAAAAAAAAAAAAAAAAAAAAAAAAAAAAAAAAAAAAAAAAAAAAAAAAAAAAAAAAAAAAAAAAAAAAAAAAAAAAAAAAAAAAAAAAAAAAAAAAAAAAAAAAAAAAAAAAAAAAAAAAAAAAAAAAAAAAAAAAAAAAAAAAAAAAAAAAAAAAAAAAAAAAAAAAAAAAAAAAAAAAAAAAAAAAAAAAAAAAAAAAAAAAAAAAAAAAAAAAAAAAAAAAAAAAAAAAAAAAAAAAAAAAAAAAAAAAAAAAAAAAAAAAAAAAAAAAAAAAAAAAAAAAAAAAAAAAAAAAAAAAAAAAAAAAAAAAAAAAAAAAAAAAAAAAAAAAAAAAAAAAAAAAAAAAAAAAAAAAAAAAAAAAAAAAAAAAAAAAAAAAAAAAAAAAAAAAAAAAAAAAAAAAAAAAAAAAAAAAAAAAAAAAAAAAAAAAAAAAAAAAAAAAAAAAAAAAAAAAAAAAAAAAAAAAAAAAAAAAAAAAAAAAAAAAAAAAAAAAAAAAAAAAAAAAAAAAAAAAAAAAAAAAAAAAAAAAAAAAAAAAAAAAAAAAAAAAAAAAAAAAAAAAAAAAAAAAAAAAAAAAAAAAAAAAAAAAAAAAAAAAAAAAAAAAAAAAAAAAAAAAAAAAAAAAAAAAAAAAAAAAAAAAAAAAAAAAAAAAAAAAAAAAAAAAAAAAAAAAAAAAAAAAAAAAAAAAAAAAAAAAAAAAAAAAAAAAAAAAAAAAAAAAAAAAAAAAAAAAAAAAAAAAAAAAAAAAAAAAAAAAAAAAAAAAAAAAAAAAAAAAAAAAAAAAAAAAAAAAAAAAAAAAAAAAAAAAAAAAAAAAAAAAAAAAAAAAAAAAAAAAAAAAAAAAAAAAAAAAAAAAAAAAAAAAAAAAAAAAAAAAAAAAAAAAAAAAAAAAAAAAAAAAAAAAAAAAAAAAAAAAAAAAAAAAAAAAAAAAAAAAAAAAAAAAAAAAAAAAAAAAAAAAAAAAAAAAAAAAAAAAAAAAAAAAAAAAAAAAAAAAAAAAAAAAAAAAAAAAAAAAAAAAAAAAAAAAAAAAAAAAAAAAAAAAAAAAAAAAAAAAAAAAAAAAAAAAAAAAAAAAAAAAAAAAAAAAAAAAAAAAAAAAAAAAAAAAAAAAAAAAAAAAAAAAAAAAAAAAAAAAAAAAAAAAAAAAAAAAAAAAAAAAAAAAAAAAAAAAAAAAAAAAAAAAAAAAAAAAAAAAAAAAAAAAAAAAAAAAAAAAAAAAAAAAAAAAAAAAAAAAAAAAAAAAAAAAAAAAAAAAAAAAAAAAAAAAAAAAAAAAAAAAAAAAAAAAAAAAAAAAAAAAAAAAAAAAAAAAAAAAAAAAAAAAAAAAAAAAAAAAAAAAAAAAAAAAAAAAAAAAAAAAAAAAAAAAAAAAAAAAAAAAAAAAAAAAAAAAAAAAAAAAAAAAAAAAAAAAAAAAAAAAAAAAAAAAAAAAAAAAAAAAAAAAAAAAAAAAAAAAAAAAAAAAAAAAAAAAAAAAAAAAAAAAAAAAAAAAAAAAAAAAAAAAAAAAAAAAAAAAAAAAAAAAAAAAAAAAAAAAAAAAAAAAAAAAAAAAAAAAAAAAAAAAAAAAAAAAAAAAAAAAAAAAAAAAAAAAAAAAAAAAAAAAAAAAAAAAAAAAAAAAAAAAAAAAAAAAAAAAAAAAAAAAAAAAAAAAAAAAAAAAAAAAAAAAAAAAAAAAAAAAAAAAAAAAAAAAAAAAAAAAAAAAAAAAAAAAAAAAAAAAAAAAAAAAAAAAAAAAAAAAAAAAAAAAAAAAAAAAAAAAAAAAAAAAAAAAAAAAAAAAAAAAAAAAAAAAAAAAAAAAAAAAAAAAAAAAAAAAAAAAAAAAAAAAAAAAAAAAAAAAAAAAAAAAAAAAAAAAAAAAAAAAAAAAAAAAAAAAAAAAAAAAAAAAAAAAAAAAAAAAAAAAAAAAAAAAAAAAAAAAAAAAAAAAAAAAAAAAAAAAAAAAAAAAAAAAAAAAAAAAAAAAAAAAAAAAAAAAAAAAAAAAAAAAAAAAAAAAAAAAAAAAAAAAAAAAAAAAAAAAAAAAAAAAAAAAAAAAAAAAAAAAAAAAAAAAAAAAAAAAAAAAAAAAAAAAAAAAAAAAAAAAAAAAAAAAAAAAAAAAAAAAAAAAAAAAAAAAAAAAAAAAAAAAAAAAAAAAAAAAAAAAAAAAAAAAAAAAAAAAAAAAAAAAAAAAAAAAAAAAAAAAAAAAAAAAAAAAAAAAAAAAAAAAAAAAAAAAAAAAAAAAAAAAAAAAAAAAAAAAAAAAAAAAAAAAAAAAAAAAAAAAAAAAAAAAAAAAAAAAAAAAAAAAAAAAAAAAAAAAAAAAAAAAAAAAAAAAAAAAAAAAAAAAAAAAAAAAAAAAAAAAAAAAAAAAAAAAAAAAAAAAAAAAAAAAAAAAAAAAAAAAAAAAAAAAAAAAAAAAAAAAAAAAAAAAAAAAAAAAAAAAAAAAAAAAAAAAAAAAAAAAAAAAAAAAAAAAAAAAAAAAAAAAAAAAAAAAAAAAAAAAAAAAAAAAAAAAAAAAAAAAAAAAAAAAAAAAAAAAAAAAAAAAAAAAAAAAAAAAAAAAAAAAAAAAAAAAAAAAAAAAAAAAAAAAAAAAAAAAAAAAAAAAAAAAAAAAAAAAAAAAAAAAAAAAAAAAAAAAAAAAAAAAAAAAAAAAAAAAAAAAAAAAAAAAAAAAAAAAAAAAAAAAAAAAAAAAAAAAAAAAAAAAAAAAAAAAAAAAAAAAAAAAAAAAAAAAAAAAAAAAAAAAAAAAAAAAAAAAAAAAAAAAAAAAAAAAAAAAAAAAAAAAAAAAAAAAAAAAAAAAAAAAAAAAAAAAAAAAAAAAAAAAAAAAAAAAAAAAAAAAAAAAAAAAAAAAAAAAAAAAAAAAAAAAAAAAAAAAAAAAAAAAAAAAAAAAAAAAAAAAAAAAAAAAAAAAAAAAAAAAAAAAAAAAAAAAAAAAAAAAAAAAAAAAAAAAAAAAAAAAAAAAAAAAAAAAAAAAAAAAAAAAAAAAAAAAAAAAAAAAAAAAAAAAAAAAAAAAAAAAAAAAAAAAAAAAAAAAAAAAAAAAAAAAAAAAAAAAAAAAAAAAAAAAAAAAAAAAAAAAAAAAAAAAAAAAAAAAAAAAAAAAAAAAAAAAAAAAAAAAAAAAAAAAAAAAAAAAAAAAAAAAAAAAAAAAAAAAAAAAAAAAAAAAAAAAAAAAAAAAAAAAAAAAAAAAAAAAAAAAAAAAAAAAAAAAAAAAAAAAAAAAAAAAAAAAAAAAAAAAAAAAAAAAAAAAAAAAAAAAAAAAAAAAAAAAAAAAAAAAAAAAAAAAAAAAAAAAAAAAAAAAAAAAAAAAAAAAAAAAAAAAAAAAAAAAAAAAAAAAAAAAAAAAAAAAAAAAAAAAAAAAAAAAAAAAAAAAAAAAAPZYQNWiEquhefvTZorktj6P/qTlGHz/5SwoYrSxesFuVDK2U68bsBBTFcMY6K2UXHsf2uextrgezEERZiXg5Ufey0c=</c2pa:manifest></metadata>
  
  <circle cx="389" cy="435" r="55" fill="#12314D"/>
  <polyline points="475,330 580,435 475,540" fill="none" stroke="#12314D" stroke-width="97" stroke-linecap="round" stroke-linejoin="round"/>
  <polyline points="618,326 728,435 618,544" fill="none" stroke="#4683CB" stroke-width="75" stroke-linecap="round" stroke-linejoin="round"/>
  <path transform="translate(0 431.18)" d="M832.5122899541228 -123.8009390681968Q837.8345733159332 -123.8009390681968 841.652733118971 -127.61909887123463Q845.4708929220088 -131.43725867427247 845.4708929220088 -136.99094566050934Q845.4708929220088 -142.5446326467462 841.7684349311843 -146.36279244978405Q838.0659769403597 -150.1809522528219 832.5122899541228 -150.1809522528219Q826.958602967886 -150.1809522528219 823.2561449770615 -146.36279244978405Q819.5536869862368 -142.5446326467462 819.5536869862368 -136.99094566050934Q819.5536869862368 -131.43725867427247 823.3718467892747 -127.61909887123463Q827.1900065923126 -123.8009390681968 832.5122899541228 -123.8009390681968ZM862.363357505146 -123.8009390681968Q867.6856408669563 -123.8009390681968 871.388098857781 -127.61909887123463Q875.0905568486055 -131.43725867427247 875.0905568486055 -136.99094566050934Q875.0905568486055 -142.5446326467462 871.388098857781 -146.36279244978405Q867.6856408669563 -150.1809522528219 862.363357505146 -150.1809522528219Q857.0410741433357 -150.1809522528219 853.2229143402978 -146.2470906375708Q849.40475453726 -142.3132290223197 849.40475453726 -136.99094566050934Q849.40475453726 -131.43725867427247 853.2229143402978 -127.61909887123463Q857.0410741433357 -123.8009390681968 862.363357505146 -123.8009390681968ZM879.4872257127097 -84.6937265401122Q875.5533640974586 -87.9333772820837 872.7765206043401 -90.01600990192253Q858.8923031387479 -101.12338387439625 855.1898451479234 -108.52829985604541Q853.8014234013642 -112.23075784686999 851.7187907815254 -111.76795059801691Q851.4873871570989 -111.53654697359038 850.5617726593927 -111.30514334916384Q849.6361581616866 -111.07373972473731 849.40475453726 -110.84233610031077Q842.4626458044639 -107.37128173391272 839.1072932502791 -102.28040199652894Q835.7519406960944 -97.18952225914515 836.908958818227 -92.79285339504096Q837.8345733159332 -89.784606277496 839.917205935772 -87.00776278437756Q827.4214102167391 -79.60284680272841 820.7107051083696 -68.26406920582814Q814.0 -56.92529160892787 814.0 -43.50388139218878Q814.0 -19.669308076255565 829.2726392121514 -7.173512357222618Q840.8428204334782 2.3140362442653606 857.0410741433357 2.3140362442653606Q877.6359967172974 2.3140362442653606 889.6689851874772 -12.032988470179875Q899.8507446622449 -24.297380564786287 899.8507446622449 -43.50388139218878Q899.8507446622449 -67.33845470812199 879.4872257127097 -84.6937265401122ZM857.0410741433357 -22.90895881822707Q850.0989654105396 -22.90895881822707 845.5865947342221 -28.80975124110374Q841.0742240579046 -34.71054366398041 841.3056276823312 -43.041074143335706Q841.5370313067577 -58.31371335548709 856.346863270056 -68.49547283025467Q863.2889720028521 -62.710382219591274 866.7600263692502 -58.54511697991362Q872.313713355487 -51.60300824711754 872.5451169799136 -43.27247776776224Q873.0079242287667 -34.71054366398041 868.379851740236 -28.80975124110374Q863.7517792517052 -22.90895881822707 857.0410741433357 -22.90895881822707ZM1005.3707974007453 -26.38001318462511Q1005.6022010251719 -30.545278424302758 1005.3707974007453 -34.94194728840694Q1004.6765865274657 -53.45423724252983 1000.048514038935 -65.02441846385663Q989.8667545641674 -90.4788171507756 962.3297232574096 -90.4788171507756Q942.660415181154 -90.4788171507756 930.8588303354007 -76.59459968518344Q919.9828599873535 -63.86740034172395 919.9828599873535 -43.27247776776224Q919.9828599873535 -23.37176606708014 933.6356738285192 -10.875970348047195Q945.668662298699 0.0 962.3297232574096 0.0H977.8337660939875Q976.2139407230018 11.338777596900266 970.0817446756986 17.818079080843276Q963.9495486283954 24.297380564786287 954.2305964024808 24.52878418921282Q943.8174333032867 24.76018781363936 932.0158484575334 21.057729822814782Q929.239004964415 20.132115325108636 927.8505832178557 20.132115325108636Q923.4539143537515 20.132115325108636 924.3795288514577 24.52878418921282Q926.4621614712966 34.0163327907008 932.9414629552396 40.03282702579074Q942.8918188055806 49.288972002852184 959.5528797642912 49.52037562727872Q971.3544646100445 49.75177925170525 981.1891186481723 43.503881392188774Q991.0237726863 37.2559835326723 996.3460560481104 26.148609560198576Q1001.8997430343472 15.272639212151379 1003.9823756541862 0.0H1027.8169489701193V-26.38001318462511ZM962.3297232574096 -26.38001318462511Q956.0818253978931 -26.38001318462511 951.6851565337889 -31.70229654643544Q947.2884876696847 -37.02457990824577 947.2884876696847 -44.66089951432146Q947.2884876696847 -53.9170444913829 951.4537529093625 -59.58643328983304Q955.6190181490401 -65.25582208828317 962.3297232574096 -65.25582208828317Q971.8172718588976 -65.25582208828317 975.7511334741487 -55.07406261351558Q978.9907842161202 -46.51212850973375 977.8337660939875 -26.38001318462511ZM1188.642467946562 -26.38001318462511Q1174.0640396076901 -26.38001318462511 1173.8326359832636 -43.27247776776224V-43.735285016615315Q1173.8326359832636 -65.4872257127097 1159.7170148932448 -78.44582868059572Q1146.7584119253588 -90.4788171507756 1125.9320857269706 -90.4788171507756Q1096.7752290492272 -90.4788171507756 1074.3290774798531 -69.88389457681389V-125.65216806360908Q1074.3290774798531 -128.66041518115404 1071.3208303623082 -128.66041518115404H1069.0067941180428Q1063.2217035073793 -128.66041518115404 1059.0564382677017 -127.0405898101683Q1047.949064295228 -122.87532457049065 1047.949064295228 -106.90847448505966V-26.38001318462511H1025.2715091014275V0.0H1131.4857727132076Q1148.146833671918 0.0 1159.7170148932448 -9.950355850341051Q1170.8243888657187 0.0 1189.105275195415 0.0H1196.9729984259172V-26.38001318462511ZM1074.3290774798531 -26.38001318462511Q1083.1224152080615 -46.049321260880674 1097.0066326736537 -56.23108073564826Q1109.5024283926866 -65.25582208828317 1124.312260355985 -65.25582208828317Q1134.725423455179 -65.25582208828317 1140.741917690269 -59.93353872647284Q1146.7584119253588 -54.61125536466251 1146.7584119253588 -45.355110387601066Q1146.7584119253588 -37.02457990824577 1142.130339436828 -31.70229654643544Q1137.5022669482973 -26.38001318462511 1130.0973509666483 -26.38001318462511ZM1249.2702175463144 -131.43725867427247Q1243.485126935651 -131.43725867427247 1239.5512653203998 -127.50339705902135Q1235.6174037051487 -123.56953544377025 1235.6174037051487 -117.78444483310686Q1235.6174037051487 -111.99935422244346 1239.5512653203998 -107.94979079497907Q1243.485126935651 -103.90022736751469 1249.2702175463144 -103.90022736751469Q1254.823904532551 -103.90022736751469 1258.7577661478022 -107.94979079497907Q1262.6916277630535 -111.99935422244346 1262.6916277630535 -117.78444483310686Q1262.6916277630535 -123.56953544377025 1258.7577661478022 -127.50339705902135Q1254.823904532551 -131.43725867427247 1249.2702175463144 -131.43725867427247ZM1293.4683098117825 0.0Q1304.807087408683 0.0 1311.2863888926258 -6.247897859516474Q1317.765690376569 -12.495795719032948 1317.765690376569 -23.37176606708014Q1317.765690376569 -26.148609560198576 1314.757443259024 -26.611416809051647Q1310.5921780193464 -27.07422405790472 1308.0467381506544 -30.082471175449687Q1303.4186656621237 -34.94194728840694 1298.790593173593 -49.288972002852184Q1284.9063757080007 -90.4788171507756 1250.6586392928734 -90.4788171507756Q1235.1545964562956 -90.4788171507756 1224.972836981528 -81.68547942256723Q1214.5596738823338 -73.12354531878539 1212.2456376380685 -60.16494235089937Q1211.7828303892154 -57.388098857780946 1212.014234013642 -55.30546623794212Q1212.2456376380685 -52.29721912039715 1215.0224811311869 -52.06581549597061Q1217.1051137510258 -52.06581549597061 1219.419149995291 -54.37985174023597Q1223.8158188593952 -58.31371335548709 1229.1381022212056 -60.85915322417898Q1237.7000363249874 -65.25582208828317 1246.7247776776223 -65.25582208828317Q1263.1544350119063 -65.25582208828317 1271.2535618668353 -44.892303138748Q1277.0386524774985 -30.313874799876224 1280.0468995950437 -26.38001318462511H1194.4275585572252V0.0Z" fill="#12314D"/>
  <path transform="translate(0 584.75)" d="M814.0 0.0V-87.93137205136944H829.9648448547167V-49.017062717997426H830.2142955555717L869.0038795385162 -87.93137205136944H888.4610342052022L842.0632038461818 -42.03244309405886L842.1879291966092 -49.26651341885238L890.5813651624692 0.0H870.8747597949283L830.2142955555717 -40.66046423935665H829.9648448547167V0.0ZM910.2879705300102 0.0V-87.93137205136944H925.8786393334444V-48.76761201714248H924.1324844274599Q926.8764421368643 -55.37805558979862 932.6761709317418 -58.808002726554164Q938.4758997266194 -62.237949863309716 945.8346954018403 -62.237949863309716Q953.1934910770614 -62.237949863309716 957.9330543933054 -59.49399215390528Q962.6726177095494 -56.75003444450084 965.0423993676714 -51.19975635047823Q967.4121810257934 -45.64947825645562 967.4121810257934 -37.168154427387364V0.0H951.8215122223592V-36.41980232482252Q951.8215122223592 -41.15936564106654 950.6366213932981 -44.15277405132593Q949.4517305642371 -47.14618246158531 947.0195862309014 -48.580523991501266Q944.5874418975657 -50.01486552141722 940.8456813847414 -50.01486552141722Q936.3555687693523 -50.01486552141722 932.9879843078105 -48.081622589791365Q929.6203998462687 -46.14837965816552 927.7495195898566 -42.5937071709825Q925.8786393334444 -39.03903468379948 925.8786393334444 -34.299471367555455V0.0ZM1018.3001240002029 1.2472535042747437Q1011.6896804275468 1.2472535042747437 1006.5135783848066 -1.309616179488481Q1001.3374763420665 -3.8664858632517056 998.4064306070209 -8.231873128213309Q995.4753848719752 -12.597260393174912 995.4753848719752 -18.085175811983785Q995.4753848719752 -24.8203447350674 998.9676946839445 -28.749193273532843Q1002.4600044959137 -32.678041811998284 1010.3177015728446 -34.42419671798292Q1018.1753986497755 -36.17035162396757 1031.3962857950878 -36.17035162396757H1037.6325533164616V-27.190126393189413H1031.5210111455153Q1025.658919675424 -27.190126393189413 1021.6677084617447 -26.753587666693253Q1017.6764972480656 -26.317048940197093 1015.2443529147299 -25.381608811991036Q1012.8122085813941 -24.44616868378498 1011.7520431027606 -22.82473912822781Q1010.6918776241271 -21.203309572670644 1010.6918776241271 -18.83352791454863Q1010.6918776241271 -14.717591350441976 1013.560560683959 -12.098358991465014Q1016.4292437437908 -9.479126632488052 1021.5429831113173 -9.479126632488052Q1025.658919675424 -9.479126632488052 1028.8394161113247 -11.412369564113906Q1032.0199125472252 -13.345612495739758 1033.8907928036374 -16.713196957281568Q1035.7616730600494 -20.080781418823374 1035.7616730600494 -24.44616868378498V-38.78958398294453Q1035.7616730600494 -45.02585150431825 1033.017715350645 -47.76980921372268Q1030.2737576412405 -50.51376692312712 1023.7880394190119 -50.51376692312712Q1018.6743000514854 -50.51376692312712 1013.311109983104 -48.95470004278369Q1007.9479199147225 -47.39563316244026 1002.4600044959137 -44.15277405132593L997.9698918805246 -54.75442883766125Q1001.2127509916389 -56.99948514535579 1005.6405009318144 -58.683277376126696Q1010.0682508719897 -60.367069606897594 1014.9949022138749 -61.302509735103655Q1019.9215535557602 -62.237949863309716 1024.2869408207218 -62.237949863309716Q1033.2671660514998 -62.237949863309716 1039.0668948463774 -59.49399215390528Q1044.866623641255 -56.75003444450084 1047.735306701087 -51.19975635047823Q1050.603989760919 -45.64947825645562 1050.603989760919 -36.918703726532414V0.0H1036.0111237609044V-12.971436444457336H1037.0089265643242Q1036.1358491113317 -8.606049179495733 1033.5789794275684 -5.425552743595135Q1031.0221097438052 -2.2450563076945387 1027.1556238805535 -0.4989014017098975Q1023.289138017302 1.2472535042747437 1018.3001240002029 1.2472535042747437ZM1109.3496298122593 1.2472535042747437Q1097.1265454703666 1.2472535042747437 1091.139728649848 -4.8642886666715Q1085.1529118293292 -10.975830837617744 1085.1529118293292 -22.700013777800336V-49.26651341885238H1073.4287288891467V-60.99069635903497H1085.1529118293292V-79.20059752144623H1100.7435806327635V-60.99069635903497H1119.2029324960297V-49.26651341885238H1100.7435806327635V-23.573091230792656Q1100.7435806327635 -17.586274410273887 1103.3628129917406 -14.592866000014503Q1105.9820453507175 -11.599457589755117 1111.8441368208087 -11.599457589755117Q1113.5902917267933 -11.599457589755117 1115.4611719832055 -12.035996316251278Q1117.3320522396175 -12.472535042747438 1119.3276578464572 -12.971436444457336L1121.6974395045793 -1.4967042051296926Q1119.4523831968847 -0.24945070085494875 1116.0224360601292 0.4989014017098975Q1112.5924889233736 1.2472535042747437 1109.3496298122593 1.2472535042747437ZM1162.1084530430808 0.0 1138.0364604105782 -60.99069635903497H1154.001305265295L1170.9639529234316 -14.218689948732079H1168.0952698635997L1185.307368222591 -60.99069635903497H1196.283199060209L1213.2458467183453 -14.218689948732079H1210.6266143593684L1227.589262017505 -60.99069635903497H1242.6810294192294L1218.7337621371541 0.0H1205.1386989405596L1186.6793470772934 -48.76761201714248H1193.7886920516594L1175.7035162396755 0.0ZM1285.4618246158532 1.2472535042747437Q1278.8513810431969 1.2472535042747437 1273.6752790004566 -1.309616179488481Q1268.4991769577166 -3.8664858632517056 1265.568131222671 -8.231873128213309Q1262.6370854876252 -12.597260393174912 1262.6370854876252 -18.085175811983785Q1262.6370854876252 -24.8203447350674 1266.1293952995945 -28.749193273532843Q1269.6217051115639 -32.678041811998284 1277.4794021884948 -34.42419671798292Q1285.3370992654256 -36.17035162396757 1298.5579864107378 -36.17035162396757H1304.7942539321116V-27.190126393189413H1298.6827117611654Q1292.8206202910742 -27.190126393189413 1288.829409077395 -26.753587666693253Q1284.8381978637158 -26.317048940197093 1282.40605353038 -25.381608811991036Q1279.9739091970441 -24.44616868378498 1278.9137437184106 -22.82473912822781Q1277.853578239777 -21.203309572670644 1277.853578239777 -18.83352791454863Q1277.853578239777 -14.717591350441976 1280.722261299609 -12.098358991465014Q1283.590944359441 -9.479126632488052 1288.7046837269675 -9.479126632488052Q1292.8206202910742 -9.479126632488052 1296.0011167269747 -11.412369564113906Q1299.1816131628752 -13.345612495739758 1301.0524934192874 -16.713196957281568Q1302.9233736756996 -20.080781418823374 1302.9233736756996 -24.44616868378498V-38.78958398294453Q1302.9233736756996 -45.02585150431825 1300.179415966295 -47.76980921372268Q1297.4354582568906 -50.51376692312712 1290.949740034662 -50.51376692312712Q1285.8360006671355 -50.51376692312712 1280.4728105987542 -48.95470004278369Q1275.1096205303727 -47.39563316244026 1269.6217051115639 -44.15277405132593L1265.1315924961748 -54.75442883766125Q1268.374451607289 -56.99948514535579 1272.8022015474644 -58.683277376126696Q1277.2299514876397 -60.367069606897594 1282.1566028295251 -61.302509735103655Q1287.0832541714103 -62.237949863309716 1291.4486414363719 -62.237949863309716Q1300.42886666715 -62.237949863309716 1306.2285954620274 -59.49399215390528Q1312.028324256905 -56.75003444450084 1314.897007316737 -51.19975635047823Q1317.765690376569 -45.64947825645562 1317.765690376569 -36.918703726532414V0.0H1303.1728243765544V-12.971436444457336H1304.1706271799742Q1303.297549726982 -8.606049179495733 1300.7406800432186 -5.425552743595135Q1298.1838103594555 -2.2450563076945387 1294.3173244962038 -0.4989014017098975Q1290.4508386329521 1.2472535042747437 1285.4618246158532 1.2472535042747437Z" fill="#12314D"/>
</svg>